<?xml version="1.0" encoding="utf-8"?>
<!-- Generator: Adobe Illustrator 22.1.0, SVG Export Plug-In . SVG Version: 6.00 Build 0)  -->
<svg version="1.1" id="Ebene_1" xmlns="http://www.w3.org/2000/svg" xmlns:xlink="http://www.w3.org/1999/xlink" x="0px" y="0px"
	 viewBox="0 0 1190.6 850.4" style="enable-background:new 0 0 1190.6 850.4;" xml:space="preserve">
<style type="text/css">
	.st0{fill:#7CCAED;}
	.st1{fill:#FFFFFF;}
</style>
<g>
	<path class="st0" d="M595,695.4c149.1,0,270-120.9,270-270c0-149.1-120.9-270-270-270s-270,120.9-270,270
		C325,574.5,445.9,695.4,595,695.4L595,695.4z"/>
	<path class="st1" d="M465.4,403.9h-6.6V299h6.6c4,0,7.3,3.3,7.3,7.3v90.4C472.6,400.7,469.4,403.9,465.4,403.9L465.4,403.9z"/>
	<path class="st1" d="M517.5,405.5c-14.5,0-22.1-7.8-22.1-22.6v-46.3h13.8v41c0,4.5,0,9.5,2,12.2c1.8,2.5,4.8,3.7,8.7,3.7
		c10.9,0,16.1-6.8,16.1-20.7v-36.3h6.6c4,0,7.3,3.3,7.3,7.3v52.7c0,4-3.3,7.3-7.3,7.3h-6.1v-7.6
		C532.8,401.3,526.5,405.5,517.5,405.5L517.5,405.5z"/>
	<path class="st1" d="M625.7,367.7c0-15.8-7.4-32.6-28.3-32.6c-18,0-30.2,14.3-30.2,35.5c0,21.9,11.4,34.9,30.5,34.9
		c14.2,0,24.6-7.5,27.1-19.6l0.4-1.8h-13.5l-0.3,1c-1.1,3.9-3.7,9-13.3,9c-10,0-15.6-6.5-16.6-19.4h44.2V367.7L625.7,367.7z
		 M581.7,363.2c1.1-7,4.6-16.9,15.6-16.9c9,0,13.8,5.7,14.3,16.9H581.7L581.7,363.2z"/>
	<path class="st1" d="M428.5,537.1h-6.6v-41.3c0-4.3,0-9.2-2-11.8c-1.8-2.5-4.8-3.7-9-3.7c-10.2,0-16,6.1-16,16.7v32.8
		c0,4-3.3,7.3-7.3,7.3H381v-105h6.6c4,0,7.3,3.3,7.3,7.3v37.7c3.7-4.8,10-8.9,18.9-8.9c14.4,0,22,7.8,22,22.6v39
		C435.8,533.8,432.5,537.1,428.5,537.1L428.5,537.1z"/>
	<path class="st1" d="M483,468.2c-18.5,0-30.4,13.8-30.4,35.2c0,22.1,11.3,35.3,30.2,35.3c18.5,0,30.4-13.9,30.4-35.3
		C513.1,481.4,501.9,468.2,483,468.2L483,468.2z M483.1,527.2c-10.9,0-16.3-7.8-16.3-23.8c0-10.9,2.8-23.8,16-23.8
		c10.8,0,16,7.8,16,23.8C498.9,519.2,493.6,527.2,483.1,527.2L483.1,527.2z"/>
	<path class="st1" d="M537.3,537.1h-6.6v-67.3h13.3v8.7c4.1-5.4,11.1-9.9,19.2-9.9h2.6V483h-3.5c-11.2,0-17.6,6.4-17.6,17.6v29.2
		C544.5,533.8,541.3,537.1,537.3,537.1L537.3,537.1z"/>
	<path class="st1" d="M588.2,537.1h-6.8v-67.3h14v60C595.5,533.8,592.2,537.1,588.2,537.1L588.2,537.1z"/>
	<path class="st1" d="M595.7,458h-14.5v-14.8h7.2c4,0,7.3,3.3,7.3,7.3V458L595.7,458z"/>
	<path class="st1" d="M660.2,537.1h-46.7v-11.6l35.9-43.8h-34.2v-11.8h44.1c4,0,7.3,3.3,7.3,7.3v4.2l-36.1,43.8h37v4.7
		C667.4,533.8,664.2,537.1,660.2,537.1L660.2,537.1z"/>
	<path class="st1" d="M709.5,468.2c-18.5,0-30.4,13.8-30.4,35.2c0,22.1,11.3,35.3,30.2,35.3c18.5,0,30.4-13.9,30.4-35.3
		C739.6,481.4,728.4,468.2,709.5,468.2L709.5,468.2z M709.6,527.2c-10.9,0-16.3-7.8-16.3-23.8c0-10.9,2.8-23.8,16-23.8
		c10.8,0,16,7.8,16,23.8C725.4,519.2,720.1,527.2,709.6,527.2L709.6,527.2z"/>
	<path class="st1" d="M804.7,537.1h-6.6v-41.2c0-4.4,0-9.3-2-11.9c-1.8-2.5-4.8-3.7-9-3.7c-10.2,0-16,6.1-16,16.7v32.8
		c0,4-3.3,7.3-7.3,7.3h-6.6v-67.3h13.3v7.6c3.8-4.8,10.4-9.2,19.6-9.2c14.4,0,22,7.8,22,22.6v39C812,533.8,808.7,537.1,804.7,537.1
		L804.7,537.1z"/>
	<path class="st1" d="M413.9,335.1c-7.7,0-14.5,3.3-18.9,8.9v-37.8c0-4-3.3-7.3-7.3-7.3H381v105h6c4,0,7.3-3.2,7.3-7.2
		c3.2,4,9.1,8.8,18.9,8.8c17,0,28-14.2,28-36.1C441.2,338.4,422.1,335.1,413.9,335.1L413.9,335.1z M411.6,393.9
		c-12.5,0-17-11-17-21.3v-6.8c0-9.2,5.3-19.1,16.9-19.1c10.8,0,15.8,7.2,15.8,22.6C427.2,385.7,421.9,393.9,411.6,393.9L411.6,393.9
		z"/>
</g>
</svg>
